<?xml version="1.0" standalone="no"?>
<!DOCTYPE svg PUBLIC "-//W3C//DTD SVG 20010904//EN"
 "http://www.w3.org/TR/2001/REC-SVG-20010904/DTD/svg10.dtd">
<svg version="1.0" xmlns="http://www.w3.org/2000/svg"
 width="250.000000pt" height="250.000000pt" viewBox="0 0 250.000000 250.000000"
 preserveAspectRatio="xMidYMid meet">

<g transform="translate(0.000000,250.000000) scale(0.100000,-0.100000)"
fill="#000000" stroke="none">
<path d="M1110 2143 c-69 -24 -186 -66 -260 -93 -74 -26 -220 -78 -325 -115
-104 -37 -194 -71 -198 -75 -4 -4 1 -83 12 -176 12 -93 43 -367 71 -609 28
-242 54 -443 58 -446 4 -4 181 -104 394 -222 l387 -215 33 18 c18 10 195 108
393 218 l360 200 7 43 c4 24 28 224 53 444 25 220 55 476 66 569 11 93 16 172
12 176 -4 4 -84 34 -178 68 -616 220 -736 262 -747 261 -7 0 -69 -21 -138 -46z
m217 -335 c39 -90 168 -380 287 -646 119 -266 216 -488 216 -493 0 -5 -49 -9
-109 -9 l-109 0 -59 148 -58 147 -244 0 -245 0 -55 -135 c-31 -75 -60 -141
-64 -148 -9 -13 -217 -18 -217 -4 -1 11 574 1302 580 1302 3 0 38 -73 77 -162z"/>
<path d="M1168 1342 c-43 -103 -78 -191 -78 -195 0 -4 72 -7 160 -7 88 0 160
3 160 8 0 12 -155 382 -160 382 -3 0 -40 -85 -82 -188z"/>
</g>
</svg>
