<?xml version="1.0" standalone="no"?>
<!DOCTYPE svg PUBLIC "-//W3C//DTD SVG 20010904//EN"
 "http://www.w3.org/TR/2001/REC-SVG-20010904/DTD/svg10.dtd">
<svg version="1.0" xmlns="http://www.w3.org/2000/svg"
 width="900.000000pt" height="900.000000pt" viewBox="0 0 900.000000 900.000000"
 preserveAspectRatio="xMidYMid meet">

<g transform="translate(0.000000,900.000000) scale(0.100000,-0.100000)"
fill="#000000" stroke="none">
<path d="M6290 4940 l0 -700 165 0 165 0 0 138 0 138 30 22 c16 12 33 22 38
22 7 0 39 -51 162 -260 l35 -59 198 -1 c108 0 197 2 197 5 0 2 -28 43 -62 91
-67 91 -83 113 -138 190 -19 27 -67 94 -107 148 l-72 99 26 31 c23 28 79 87
280 297 34 37 63 70 63 73 0 3 -87 6 -194 6 l-195 0 -122 -150 c-68 -82 -126
-150 -131 -150 -4 0 -8 171 -8 380 l0 380 -165 0 -165 0 0 -700z"/>
<path d="M5710 5490 l0 -140 165 0 165 0 0 140 0 140 -165 0 -165 0 0 -140z"/>
<path d="M2550 4906 l0 -666 165 0 165 0 0 224 0 224 193 5 c214 6 260 16 359
80 132 85 192 206 191 377 -2 173 -79 299 -220 362 -102 45 -143 50 -505 55
l-348 5 0 -666z m674 369 c53 -27 78 -63 84 -124 7 -74 -18 -131 -71 -167 -41
-28 -46 -29 -199 -32 l-158 -4 0 177 0 176 153 -3 c128 -2 158 -6 191 -23z"/>
<path d="M4928 5318 l-3 -133 -92 -3 -93 -3 0 -129 0 -130 79 0 c58 0 80 -4
84 -14 3 -7 6 -96 7 -197 1 -209 12 -274 59 -347 62 -97 147 -135 301 -136
107 -1 177 14 243 52 33 20 34 29 1 117 -49 131 -53 138 -77 130 -57 -17 -122
-16 -153 3 -45 29 -55 79 -52 247 l3 140 130 5 130 5 3 127 3 127 -133 3 -133
3 -3 133 -3 132 -149 0 -149 0 -3 -132z"/>
<path d="M4020 5196 c-47 -12 -103 -32 -126 -43 -49 -26 -144 -100 -144 -113
0 -5 39 -47 87 -93 l86 -85 36 28 c48 38 111 54 180 45 72 -9 124 -57 135
-124 4 -24 4 -46 2 -49 -3 -2 -34 3 -70 12 -182 45 -387 -10 -463 -125 -35
-53 -55 -141 -43 -194 23 -104 68 -161 160 -204 49 -22 68 -25 170 -26 113 0
116 1 189 37 41 21 77 35 82 33 4 -3 6 -17 3 -30 l-4 -25 155 0 155 0 0 283
c0 310 -8 389 -44 471 -50 114 -141 178 -295 211 -96 20 -149 18 -251 -9z
m188 -577 c67 -17 72 -23 72 -95 0 -86 -30 -115 -119 -116 -83 0 -131 39 -131
107 0 50 24 82 75 100 49 17 46 17 103 4z"/>
<path d="M7640 5196 c-47 -12 -107 -34 -135 -48 -58 -30 -135 -94 -135 -112 0
-7 38 -49 85 -95 l84 -83 38 30 c49 39 112 56 179 47 83 -10 134 -64 134 -140
0 -40 -4 -41 -74 -20 -145 44 -349 -4 -435 -101 -36 -41 -71 -127 -71 -173 0
-70 48 -168 102 -211 64 -50 117 -64 238 -64 103 0 121 2 171 26 31 14 60 31
63 37 14 23 36 11 36 -19 l0 -30 150 0 150 0 0 325 c0 301 -2 330 -20 386 -50
147 -135 217 -308 254 -97 20 -149 18 -252 -9z m228 -591 c31 -14 32 -15 32
-77 0 -35 -4 -68 -8 -74 -33 -47 -149 -61 -202 -24 -40 28 -55 78 -37 122 17
40 32 53 77 67 39 11 89 6 138 -14z"/>
<path d="M5710 4710 l0 -470 165 0 165 0 0 470 0 470 -165 0 -165 0 0 -470z"/>
</g>
</svg>
