<?xml version="1.0" standalone="no"?>
<!DOCTYPE svg PUBLIC "-//W3C//DTD SVG 20010904//EN"
 "http://www.w3.org/TR/2001/REC-SVG-20010904/DTD/svg10.dtd">
<svg version="1.0" xmlns="http://www.w3.org/2000/svg"
 width="564.000000pt" height="376.000000pt" viewBox="0 0 564.000000 376.000000"
 preserveAspectRatio="xMidYMid meet">

<g transform="translate(0.000000,376.000000) scale(0.100000,-0.100000)"
fill="#000000" stroke="none">
<path d="M2 2433 l3 -1328 75 2 c41 1 99 8 128 16 l52 14 15 -50 c8 -28 14
-51 12 -53 -7 -6 -152 -33 -209 -39 l-68 -7 1 -172 c0 -95 -3 -180 -7 -189 -3
-10 -1 -24 6 -32 9 -10 9 -15 1 -15 -8 0 -11 -82 -11 -290 l0 -290 2820 0
2820 0 0 1880 0 1880 -2820 0 -2821 0 3 -1327z m59 752 c-9 -40 -9 -39 -10 22
-1 34 2 70 7 80 11 29 15 -55 3 -102z m1229 -139 c0 -2 -8 -10 -17 -17 -16
-13 -17 -12 -4 4 13 16 21 21 21 13z m-40 -29 c0 -2 -15 -16 -32 -33 l-33 -29
29 33 c28 30 36 37 36 29z m148 -67 c7 -11 11 -20 9 -20 -2 0 -12 9 -22 20
-10 11 -14 20 -9 20 5 0 15 -9 22 -20z m-253 -26 c-22 -20 -68 -63 -103 -94
-34 -32 -90 -80 -124 -107 -34 -26 -79 -64 -102 -84 -40 -36 -40 -37 -23 -63
17 -26 17 -26 -24 -56 -48 -34 -57 -36 -65 -15 -7 18 -28 19 -46 3 -7 -7 -64
-55 -125 -107 -62 -52 -113 -96 -113 -98 0 -2 18 -36 39 -76 54 -98 71 -164
71 -266 -1 -108 -12 -158 -55 -244 -19 -38 -35 -70 -35 -72 0 -12 136 -105
147 -100 8 2 12 1 9 -4 -6 -10 98 -100 116 -101 15 0 80 109 75 124 -4 9 5 40
18 71 14 30 32 84 41 120 18 70 18 70 87 59 46 -8 47 -22 12 -131 -18 -58 -21
-79 -12 -85 9 -5 8 -8 -4 -8 -8 0 -23 -16 -32 -35 l-17 -36 -37 19 -37 19 -39
-65 -40 -66 38 -30 c21 -17 72 -54 114 -83 81 -56 88 -56 117 0 9 16 18 26 21
23 7 -6 -24 -56 -44 -71 -11 -8 -5 -18 29 -46 24 -19 59 -46 78 -59 39 -27 57
-42 105 -82 28 -24 33 -25 48 -13 9 9 12 10 7 3 -16 -20 -13 -24 57 -74 l66
-47 21 25 c12 14 31 38 44 54 l23 29 -16 -30 c-9 -16 -28 -44 -43 -62 l-27
-32 -122 92 c-68 51 -145 108 -173 127 -28 19 -64 45 -79 58 -17 13 -36 20
-45 16 -12 -5 -15 -2 -10 10 3 9 2 16 -3 16 -5 0 -22 13 -39 28 -41 39 -169
132 -182 132 -6 0 -15 -7 -20 -16 -7 -13 -2 -23 21 -44 l30 -26 -24 -29 c-25
-29 -196 -165 -208 -165 -4 0 -15 15 -26 32 -10 18 -21 35 -24 38 -3 3 -14 21
-24 40 -18 34 -18 35 0 12 l19 -23 39 27 c22 15 67 50 100 78 33 28 69 56 79
62 11 6 21 15 23 21 5 13 -114 96 -127 88 -5 -3 -8 0 -5 7 3 8 -25 35 -70 68
-41 30 -75 58 -75 63 0 4 13 31 29 60 93 168 89 375 -9 531 -16 25 -36 46 -45
46 -8 0 -15 9 -15 20 0 13 7 20 18 20 10 0 54 30 98 68 44 37 101 85 127 106
26 22 47 43 47 48 0 5 -27 36 -60 70 -33 33 -60 63 -60 67 0 3 11 23 26 44 30
45 31 44 119 -42 73 -71 70 -71 145 -1 37 35 133 117 191 162 19 15 59 47 89
72 66 54 81 60 25 10z m295 -35 c15 -28 5 -23 -15 7 -9 15 -12 23 -6 20 6 -4
16 -16 21 -27z m100 -184 c107 -217 159 -418 169 -650 14 -323 -43 -597 -180
-865 -27 -53 -55 -105 -63 -115 -9 -11 13 37 48 108 94 187 150 373 175 572 7
57 8 345 1 405 -22 195 -97 431 -196 620 -25 47 -38 76 -29 65 9 -11 43 -74
75 -140z m1010 -65 c0 -5 -5 -10 -11 -10 -5 0 -7 5 -4 10 3 6 8 10 11 10 2 0
4 -4 4 -10z m-693 -6 c-3 -3 -12 -4 -19 -1 -8 3 -5 6 6 6 11 1 17 -2 13 -5z
m2084 -91 c13 -16 12 -17 -3 -4 -17 13 -22 21 -14 21 2 0 10 -8 17 -17z m-144
-15 c-3 -8 -6 -5 -6 6 -1 11 2 17 5 13 3 -3 4 -12 1 -19z m83 8 c0 -2 -8 -10
-17 -17 -16 -13 -17 -12 -4 4 13 16 21 21 21 13z m21 -19 c-10 -9 -11 -8 -5 6
3 10 9 15 12 12 3 -3 0 -11 -7 -18z m-3183 -331 c52 -151 38 -380 -33 -528
-22 -44 -31 -76 -27 -93 4 -25 3 -26 -15 -14 -18 10 -19 16 -9 43 6 17 17 37
24 45 7 7 10 21 7 29 -3 9 -3 13 1 9 4 -4 18 23 31 60 18 52 25 98 30 193 6
148 -14 257 -72 371 -19 39 -35 73 -35 77 1 19 76 -130 98 -192z m2204 149 c0
-5 -5 -11 -11 -13 -6 -2 -11 4 -11 13 0 9 5 15 11 13 6 -2 11 -8 11 -13z
m-1972 -76 c25 -84 43 -187 36 -206 -4 -9 -24 -13 -61 -13 l-55 0 0 33 c0 28
-25 145 -46 209 -3 12 6 20 38 31 24 9 48 16 55 16 7 1 22 -31 33 -70z m500
46 c0 -8 -4 -15 -10 -15 -5 0 -10 7 -10 15 0 8 5 15 10 15 6 0 10 -7 10 -15z
m2069 -19 c-3 -3 -11 5 -18 17 -13 21 -12 21 5 5 10 -10 16 -20 13 -22z m51
-1 c0 -5 -5 -3 -10 5 -5 8 -10 20 -10 25 0 6 5 3 10 -5 5 -8 10 -19 10 -25z
m750 -105 c0 -5 -4 -10 -9 -10 -6 0 -13 5 -16 10 -3 6 1 10 9 10 9 0 16 -4 16
-10z m-3050 -25 c0 -8 -4 -15 -10 -15 -5 0 -10 7 -10 15 0 8 5 15 10 15 6 0
10 -7 10 -15z m777 -2 c4 -12 -137 -16 -187 -5 -22 5 -22 6 -5 12 33 12 188 6
192 -7z m-1280 -95 c-3 -8 -6 -5 -6 6 -1 11 2 17 5 13 3 -3 4 -12 1 -19z m492
-77 c-15 -5 -22 6 -14 19 6 9 10 9 16 -1 5 -8 4 -15 -2 -18z m2031 -185 c0 -9
-39 -13 -51 -5 -10 6 -4 9 19 9 17 0 32 -2 32 -4z m86 -3 c-11 -11 -45 -13
-51 -3 -4 6 7 10 26 10 18 0 29 -3 25 -7z m72 0 c-10 -2 -26 -2 -35 0 -10 3
-2 5 17 5 19 0 27 -2 18 -5z m-2448 -223 c8 -5 11 -10 5 -10 -5 0 -17 5 -25
10 -8 5 -10 10 -5 10 6 0 17 -5 25 -10z m134 -50 c37 -17 66 -34 63 -37 -7 -7
-166 57 -174 70 -9 15 32 2 111 -33z m1151 0 c3 -5 1 -10 -4 -10 -6 0 -11 5
-11 10 0 6 2 10 4 10 3 0 8 -4 11 -10z m88 -20 c10 -12 9 -12 -5 -2 -13 10
-17 10 -20 0 -3 -8 -6 -7 -10 4 -8 20 17 18 35 -2z m25 -5 c-3 -3 -9 2 -12 12
-6 14 -5 15 5 6 7 -7 10 -15 7 -18z m-2113 5 c3 -6 -1 -7 -9 -4 -18 7 -21 14
-7 14 6 0 13 -4 16 -10z m-49 -15 c-11 -8 -25 -15 -30 -15 -6 1 0 7 14 15 32
19 40 18 16 0z m2054 -5 c-6 -11 -13 -20 -16 -20 -2 0 0 9 6 20 6 11 13 20 16
20 2 0 0 -9 -6 -20z m-1938 -87 c68 -108 77 -127 44 -88 -14 17 -26 33 -26 38
0 8 -50 88 -61 97 -7 6 -20 40 -15 40 2 0 28 -39 58 -87z m3288 68 c0 -16 -28
-20 -34 -5 -4 9 1 14 14 14 11 0 20 -4 20 -9z m50 -1 c0 -5 -9 -10 -20 -10
-11 0 -20 5 -20 10 0 6 9 10 20 10 11 0 20 -4 20 -10z m40 -3 c0 -8 -7 -14
-15 -14 -8 0 -15 6 -15 14 0 7 7 13 15 13 8 0 15 -6 15 -13z m50 -2 c0 -9 -6
-12 -15 -9 -8 4 -15 10 -15 15 0 5 7 9 15 9 8 0 15 -7 15 -15z m-3653 -11 c-3
-3 -12 -4 -19 -1 -8 3 -5 6 6 6 11 1 17 -2 13 -5z m1374 -67 c-13 -13 -26 -3
-16 12 3 6 11 8 17 5 6 -4 6 -10 -1 -17z m716 -7 c1 -14 -4 -20 -20 -20 -16 0
-23 6 -24 20 -1 14 4 20 20 20 16 0 23 -6 24 -20z m-1167 -10 c-20 -13 -33
-13 -25 0 3 6 14 10 23 10 15 0 15 -2 2 -10z m3375 -80 c3 -5 -1 -10 -9 -10
-9 0 -16 5 -16 10 0 6 4 10 9 10 6 0 13 -4 16 -10z m-3570 -160 c-3 -5 -12
-10 -18 -10 -7 0 -6 4 3 10 19 12 23 12 15 0z m2536 -57 c13 -16 12 -17 -3 -4
-10 7 -18 15 -18 17 0 8 8 3 21 -13z m38 3 c8 -10 8 -16 -1 -24 -10 -8 -13 -4
-13 14 0 28 -1 28 14 10z m44 -15 c-4 -4 -11 -10 -14 -14 -4 -5 -6 3 -5 16 1
20 4 23 14 15 7 -6 9 -14 5 -17z m26 15 c9 -11 9 -16 -1 -22 -7 -4 -10 -4 -6
1 4 4 3 14 -3 22 -6 7 -9 13 -6 13 2 0 10 -6 16 -14z m51 -10 c0 -2 -7 -9 -15
-16 -13 -11 -14 -10 -9 4 5 14 24 23 24 12z m-2915 -120 c8 -16 15 -31 15 -34
0 -8 -35 42 -59 83 l-23 40 26 -30 c15 -16 33 -43 41 -59z m275 -426 c0 -10
-9 -19 -23 -22 -20 -4 -23 -1 -19 23 3 20 8 25 23 22 10 -3 19 -13 19 -23z"/>
</g>
</svg>
